<svg xmlns="http://www.w3.org/2000/svg" viewBox="0 0 639.34 625.29"><defs><style>.cls-1{fill:#07d77d;}</style></defs><g id="Layer_2" data-name="Layer 2"><g id="Layer_1-2" data-name="Layer 1"><path class="cls-1" d="M395.52,201.68,531.89,64.83,475.8,8.74a29.85,29.85,0,0,0-42.27.06l-115,115.68L243.62,49.63a29.53,29.53,0,0,0-41.77,0L145.48,106l95.82,95.81A109,109,0,0,0,395.52,201.68Z"/><path class="cls-1" d="M206.73,616.43,318.48,504.68l67.45,68a32.88,32.88,0,0,0,46.58.09l53.92-53.91-91.61-92A108,108,0,0,0,242,426.69L108.09,560.56,164,616.43A30.24,30.24,0,0,0,206.73,616.43Z"/><path class="cls-1" d="M564.4,524.71l60.65-60.65a38.22,38.22,0,0,0,0-54l-95.82-95.81,98.86-98.86a38.41,38.41,0,0,0,0-54.32l-60.51-60.5L353.9,314.21Z"/><path class="cls-1" d="M71.26,102.44,11.6,162.1a39.6,39.6,0,0,0,0,56l96.09,96.1L11.6,410.3a39.61,39.61,0,0,0,0,56L71.26,526,283,314.21Z"/></g></g></svg>