<svg xmlns="http://www.w3.org/2000/svg" xmlns:xlink="http://www.w3.org/1999/xlink" viewBox="0 0 1724.21 1291"><defs><style>.cls-1{fill:url(#linear-gradient);}.cls-2,.cls-6{fill:none;stroke:#07d77d;stroke-miterlimit:10;}.cls-2{stroke-width:1.26px;}.cls-3{fill:#e6e6e6;}.cls-18,.cls-4{fill:#07d77d;}.cls-10,.cls-14,.cls-16,.cls-28,.cls-5,.cls-7,.cls-9{fill:#262338;}.cls-6{stroke-width:1.68px;}.cls-10,.cls-14,.cls-16,.cls-7,.cls-9{font-size:25.25px;font-family:Montserrat-SemiBold, Montserrat;font-weight:600;}.cls-11,.cls-7{letter-spacing:-0.08em;}.cls-8{letter-spacing:-0.07em;}.cls-13,.cls-9{letter-spacing:-0.08em;}.cls-10{letter-spacing:-0.1em;}.cls-12{letter-spacing:-0.08em;}.cls-14{letter-spacing:-0.09em;}.cls-15{letter-spacing:-0.07em;}.cls-16{letter-spacing:-0.08em;}.cls-17{letter-spacing:-0.07em;}.cls-18{font-size:84.16px;letter-spacing:-0.04em;}.cls-18,.cls-28{font-family:Montserrat-Bold, Montserrat;font-weight:700;}.cls-19{letter-spacing:-0.05em;}.cls-20,.cls-26{font-size:107.72px;}.cls-20{letter-spacing:-0.04em;}.cls-21{letter-spacing:-0.05em;}.cls-22{letter-spacing:0.04em;}.cls-23{letter-spacing:-0.04em;}.cls-24,.cls-26{letter-spacing:-0.04em;}.cls-25{letter-spacing:-0.05em;}.cls-27{letter-spacing:-0.04em;}.cls-28{font-size:42.08px;letter-spacing:-0.04em;}.cls-29{letter-spacing:-0.05em;}.cls-30{letter-spacing:-0.07em;}.cls-31{letter-spacing:-0.04em;}.cls-32{font-size:33.66px;fill:#f2f2f2;font-family:Montserrat-Medium, Montserrat;font-weight:500;letter-spacing:-0.02em;}.cls-33{letter-spacing:-0.03em;}.cls-34{letter-spacing:-0.03em;}.cls-35{letter-spacing:-0.02em;}.cls-36{letter-spacing:-0.01em;}.cls-37{letter-spacing:-0.03em;}.cls-38{letter-spacing:-0.02em;}.cls-39{letter-spacing:-0.02em;}</style><linearGradient id="linear-gradient" x1="146.02" y1="1437.02" x2="1577.56" y2="5.47" gradientUnits="userSpaceOnUse"><stop offset="0" stop-color="#262338"/><stop offset="0.4" stop-color="#262539"/><stop offset="0.54" stop-color="#252c3b"/><stop offset="0.65" stop-color="#223740"/><stop offset="0.73" stop-color="#204846"/><stop offset="0.8" stop-color="#1c5e4f"/><stop offset="0.86" stop-color="#177a59"/><stop offset="0.92" stop-color="#129a66"/><stop offset="0.97" stop-color="#0bbe74"/><stop offset="1" stop-color="#07d77d"/></linearGradient></defs><g id="Layer_2" data-name="Layer 2"><g id="Layer_1-2" data-name="Layer 1"><rect class="cls-1" y="151.49" width="1723.58" height="1139.51"/><path class="cls-2" d="M1723.58,256.28V481.89a223.93,223.93,0,0,1-158.83-65.81l-197.6-197.59,116.24-116.25a60.93,60.93,0,0,1,86.16,0Z"/><path class="cls-2" d="M1723.58,814.63V1041l-230.11,230.13a62.4,62.4,0,0,1-88.22,0L1290,1155.94l276.08-276.09A222,222,0,0,1,1723.58,814.63Z"/><path class="cls-2" d="M1214.07,211.16l-123,123a81.68,81.68,0,0,0,0,115.52l198.18,198.17L1091,846.06a81.68,81.68,0,0,0,0,115.52l123,123L1650.8,647.88Z"/><rect class="cls-3" width="1721.89" height="151.49"/><path class="cls-4" d="M122.25,81.1l9.31-9.35-3.83-3.83a2,2,0,0,0-2.89,0L117,75.83l-5.11-5.11a2,2,0,0,0-2.85,0l-3.85,3.84,6.54,6.55A7.45,7.45,0,0,0,122.25,81.1Z"/><path class="cls-4" d="M109.36,109.41l7.63-7.63,4.6,4.65a2.25,2.25,0,0,0,3.18,0l3.68-3.68-6.25-6.28a7.38,7.38,0,0,0-10.44,0l-9.14,9.14,3.82,3.81A2.06,2.06,0,0,0,109.36,109.41Z"/><path class="cls-4" d="M133.78,103.15,137.92,99a2.61,2.61,0,0,0,0-3.69l-6.54-6.54L138.13,82a2.63,2.63,0,0,0,0-3.71L134,74.19,119.41,88.78Z"/><path class="cls-4" d="M100.11,74.32,96,78.39a2.7,2.7,0,0,0,0,3.83l6.56,6.56L96,95.34a2.7,2.7,0,0,0,0,3.83l4.07,4.07,14.46-14.46Z"/><path class="cls-5" d="M174.19,76,167,95.49l-9-23.06h-6.7L164.45,105h4.93L182.15,72.4h-2.81A5.51,5.51,0,0,0,174.19,76Z"/><path class="cls-5" d="M186.83,72.59a3.24,3.24,0,0,0-2.42,1,3.38,3.38,0,0,0-1,2.42,3.35,3.35,0,0,0,1,2.44,3.5,3.5,0,0,0,4.86,0A3.41,3.41,0,0,0,190.2,76a3.44,3.44,0,0,0-.93-2.42A3.21,3.21,0,0,0,186.83,72.59Z"/><path class="cls-5" d="M183.82,88.5V105h6V83h-.51A5.51,5.51,0,0,0,183.82,88.5Z"/><path class="cls-5" d="M203.34,82.86c-2.06-.58-4.48.56-5,2a1.36,1.36,0,0,0,0,.17V83h-.46a5.52,5.52,0,0,0-5.52,5.51V105h6V92.84a5,5,0,0,1,1.21-3.67A4.19,4.19,0,0,1,202.66,88a7.8,7.8,0,0,1,2.64.53.09.09,0,0,0,.08,0c.42,0,1.13-2.29.27-3.91A3.76,3.76,0,0,0,203.34,82.86Z"/><path class="cls-5" d="M217.68,73.82V72.16a6,6,0,0,0-6,6V83h-5.17c1.16,1,1.74,3.92.91,5.24h4.26V105h6V88.23A5.25,5.25,0,0,0,222.84,83h-5.16Z"/><path class="cls-5" d="M238.31,89v6.66a4.53,4.53,0,0,1-1.05,3.19,3.77,3.77,0,0,1-2.92,1.14,4.31,4.31,0,0,1-2.14-.5A3.13,3.13,0,0,1,230.83,98a5.59,5.59,0,0,1-.46-2.35V83h-6V95.76a9.88,9.88,0,0,0,1.28,5.06,9,9,0,0,0,3.54,3.42,10.62,10.62,0,0,0,5.17,1.23,10.77,10.77,0,0,0,5.18-1.21,8.68,8.68,0,0,0,3.51-3.39,10.08,10.08,0,0,0,1.25-5.11V83A6,6,0,0,0,238.31,89Z"/><path class="cls-5" d="M264,85.86a7.66,7.66,0,0,0-2.79-2.37,9.13,9.13,0,0,0-4.24-1A10,10,0,0,0,251.55,84a10.41,10.41,0,0,0-3.79,4.1,13.22,13.22,0,0,0,0,11.72,10.44,10.44,0,0,0,3.79,4.11,10.07,10.07,0,0,0,5.42,1.5,9,9,0,0,0,4.24-1,8.07,8.07,0,0,0,2.15-1.61V105h5.93V83h-.5A5.41,5.41,0,0,0,264,85.86Zm-1.87,12.43a5.3,5.3,0,0,1-4.06,1.66,5.54,5.54,0,0,1-2.9-.75,5.23,5.23,0,0,1-2-2.1,7.12,7.12,0,0,1,0-6.2,5.23,5.23,0,0,1,2-2.1,5.54,5.54,0,0,1,2.9-.75,5.64,5.64,0,0,1,2.94.75,5.16,5.16,0,0,1,2,2.1,6.54,6.54,0,0,1,.71,3.08A6.09,6.09,0,0,1,262.13,98.29Z"/><path class="cls-5" d="M292.36,83h-4.47A5,5,0,0,0,284,84.88l-6.52,8.21V72h0a6,6,0,0,0-6,6v27h6V94.27L285.52,105h7.3l-9.11-11.56Z"/><path class="cls-5" d="M293.74,89v16h6V83A6,6,0,0,0,293.74,89Z"/><path class="cls-5" d="M296.76,72.59a3.23,3.23,0,0,0-2.42,1,3.38,3.38,0,0,0-1,2.42,3.35,3.35,0,0,0,1,2.44,3.25,3.25,0,0,0,2.42,1,3.21,3.21,0,0,0,2.43-1,3.37,3.37,0,0,0,.94-2.44,3.41,3.41,0,0,0-.94-2.42A3.19,3.19,0,0,0,296.76,72.59Z"/><path class="cls-5" d="M318.61,72h0V84.89a8.37,8.37,0,0,0-2-1.4,9.27,9.27,0,0,0-4.26-1,10.07,10.07,0,0,0-5.5,1.51,10.68,10.68,0,0,0-3.78,4.1,13,13,0,0,0,0,11.72,10.61,10.61,0,0,0,3.8,4.11,10.2,10.2,0,0,0,5.48,1.5,9,9,0,0,0,4.28-1,8.3,8.3,0,0,0,2-1.46v2h5.93V78A6,6,0,0,0,318.61,72ZM316.3,99.2a6,6,0,0,1-5.81,0,5.17,5.17,0,0,1-2-2.1,6.59,6.59,0,0,1-.7-3.12,6.42,6.42,0,0,1,.7-3.06,5.4,5.4,0,0,1,2-2.09,6,6,0,0,1,5.84,0,5.16,5.16,0,0,1,2,2.1,7.12,7.12,0,0,1,0,6.2A5.16,5.16,0,0,1,316.3,99.2Z"/><path class="cls-5" d="M342.57,95.21a6.37,6.37,0,0,0-2.05-2A11.52,11.52,0,0,0,337.87,92c-.92-.29-1.81-.55-2.66-.78a8.56,8.56,0,0,1-2.08-.79,1.42,1.42,0,0,1-.8-1.28A1.26,1.26,0,0,1,333,88a4.14,4.14,0,0,1,2-.41,6.6,6.6,0,0,1,2.71.55A6,6,0,0,1,340,89.87l1-1a3.36,3.36,0,0,0-1-5.45l0,0a12.28,12.28,0,0,0-5-1,10.83,10.83,0,0,0-4.51.87,6.74,6.74,0,0,0-2.94,2.41,6.45,6.45,0,0,0-1,3.65,6,6,0,0,0,.8,3.26,5.63,5.63,0,0,0,2.07,2,13.7,13.7,0,0,0,2.67,1.15c.93.28,1.82.54,2.67.77a7.79,7.79,0,0,1,2.07.84,1.58,1.58,0,0,1,.8,1.42,1.32,1.32,0,0,1-.75,1.23,4.77,4.77,0,0,1-2.21.41,8.34,8.34,0,0,1-3.33-.64,7.36,7.36,0,0,1-2.65-1.91l-1.5,1.52a2.71,2.71,0,0,0,.55,4.24A13.15,13.15,0,0,0,331,105a13.71,13.71,0,0,0,4,.5,9.47,9.47,0,0,0,6-1.89,6.26,6.26,0,0,0,2.33-5.13A6.13,6.13,0,0,0,342.57,95.21Z"/><rect class="cls-6" x="1378.53" y="57.23" width="126.24" height="60.59" rx="8.79"/><rect class="cls-4" x="1524.96" y="57.23" width="126.24" height="60.59" rx="8.79"/><text class="cls-7" transform="translate(697.91 98.94)">Ho<tspan class="cls-8" x="32.7" y="0">m</tspan><tspan x="57.39" y="0">e</tspan></text><text class="cls-9" transform="translate(810.69 98.94)">About Us</text><text class="cls-10" transform="translate(947.03 98.94)">C<tspan class="cls-11" x="15.83" y="0">ou</tspan><tspan class="cls-12" x="45.27" y="0">r</tspan><tspan class="cls-13" x="53.78" y="0">ses</tspan></text><text class="cls-14" transform="translate(1068.21 98.94)">P<tspan class="cls-13" x="15.93" y="0">a</tspan><tspan class="cls-15" x="29.24" y="0">r</tspan><tspan class="cls-11" x="38.2" y="0">t</tspan><tspan class="cls-8" x="46.88" y="0">n</tspan><tspan class="cls-11" x="62.29" y="0">e</tspan><tspan class="cls-12" x="75.97" y="0">r</tspan><tspan class="cls-13" x="84.48" y="0">s</tspan></text><text class="cls-16" transform="translate(1559.7 98.94)">L<tspan class="cls-13" x="12.98" y="0">ogin</tspan></text><text class="cls-7" transform="translate(1403.17 98.94)">Signup</text><text class="cls-10" transform="translate(1192.77 98.94)">C<tspan class="cls-11" x="15.83" y="0">ont</tspan><tspan class="cls-8" x="54.05" y="0">a</tspan><tspan class="cls-17" x="67.49" y="0">c</tspan><tspan class="cls-11" x="80.31" y="0">t Us</tspan></text><text class="cls-18" transform="translate(97.02 459.98)">Join us <tspan class="cls-19" x="309.36" y="0">t</tspan><tspan x="341.43" y="0">o</tspan><tspan class="cls-20"><tspan x="0" y="117.82">Emp</tspan><tspan class="cls-21" x="247.65" y="117.82">ow</tspan><tspan x="407.95" y="117.82">er </tspan><tspan x="0" y="235.65">A</tspan><tspan class="cls-22" x="78.53" y="235.65">f</tspan><tspan class="cls-23" x="124.85" y="235.65">r</tspan><tspan class="cls-24" x="166.86" y="235.65">ican </tspan><tspan class="cls-25" x="414.41" y="235.65">K</tspan><tspan class="cls-24" x="489.06" y="235.65">ids with a</tspan></tspan><tspan class="cls-26"><tspan x="0" y="353.47">Digital S</tspan><tspan class="cls-27" x="438.32" y="353.47">k</tspan><tspan x="505" y="353.47">ill</tspan></tspan></text><rect class="cls-4" x="106.13" y="1055.03" width="380.31" height="99.68" rx="17.65"/><text class="cls-28" transform="translate(154.2 1120.52)">GET <tspan class="cls-29" x="92.36" y="0">S</tspan><tspan class="cls-30" x="117.23" y="0">T</tspan><tspan class="cls-31" x="140.21" y="0">A</tspan><tspan class="cls-29" x="170.88" y="0">R</tspan><tspan class="cls-31" x="199.83" y="0">TED</tspan></text><text class="cls-32" transform="translate(107.12 913.34)">Di<tspan class="cls-33" x="36.05" y="0">v</tspan><tspan x="53.79" y="0">e in</tspan><tspan class="cls-34" x="113.48" y="0">t</tspan><tspan class="cls-35" x="126.24" y="0">o t</tspan><tspan class="cls-36" x="168.89" y="0">h</tspan><tspan x="191.34" y="0">e </tspan><tspan class="cls-37" x="219.85" y="0">w</tspan><tspan x="249.04" y="0">o</tspan><tspan class="cls-38" x="269.84" y="0">r</tspan><tspan x="282.84" y="0">ld of </tspan><tspan class="cls-34" x="363.13" y="0">t</tspan><tspan x="375.88" y="0">e</tspan><tspan class="cls-39" x="395.91" y="0">c</tspan><tspan x="414.33" y="0">h</tspan></text></g></g></svg>