<svg xmlns="http://www.w3.org/2000/svg" viewBox="0 0 3171.74 625.29"><defs><style>.cls-1{fill:#ec2a7b;}</style></defs><g id="Layer_2" data-name="Layer 2"><g id="Layer_1-2" data-name="Layer 1"><path class="cls-1" d="M395.52,201.68,531.89,64.83,475.8,8.74a29.85,29.85,0,0,0-42.27.06l-115,115.68L243.62,49.63a29.53,29.53,0,0,0-41.77,0L145.48,106l95.82,95.81A109,109,0,0,0,395.52,201.68Z"/><path class="cls-1" d="M206.73,616.43,318.48,504.68l67.45,68a32.88,32.88,0,0,0,46.58.09l53.92-53.91-91.61-92A108,108,0,0,0,242,426.69L108.09,560.56,164,616.43A30.24,30.24,0,0,0,206.73,616.43Z"/><path class="cls-1" d="M564.4,524.71l60.65-60.65a38.22,38.22,0,0,0,0-54l-95.82-95.81,98.86-98.86a38.41,38.41,0,0,0,0-54.32l-60.51-60.5L353.9,314.21Z"/><path class="cls-1" d="M71.26,102.44,11.6,162.1a39.6,39.6,0,0,0,0,56l96.09,96.1L11.6,410.3a39.61,39.61,0,0,0,0,56L71.26,526,283,314.21Z"/><path class="cls-1" d="M1026.54,150.06,934.84,397.7,821,105.39H736L903.12,518.52h62.46L1127.52,105h-35.63A70,70,0,0,0,1026.54,150.06Z"/><path class="cls-1" d="M1186.86,107.36q-18.51,0-30.65,12.72a42.84,42.84,0,0,0-12.14,30.65q0,18.51,12.14,30.94t30.65,12.43q19.08,0,30.94-12.43t11.85-30.94a43.39,43.39,0,0,0-11.85-30.65Q1205.94,107.38,1186.86,107.36Z"/><path class="cls-1" d="M1148.69,309.11v209.4H1225V239.2h-6.43A69.91,69.91,0,0,0,1148.69,309.11Z"/><path class="cls-1" d="M1396.2,237.58c-26.1-7.29-56.83,7-63,25.62a17.87,17.87,0,0,0-.58,2.15V239.2h-5.85a69.91,69.91,0,0,0-69.91,69.91v209.4h75.76V364.11q0-31.22,15.32-46.55t39.61-15.32c7.71,0,28.12,3.22,33.48,6.73a1.64,1.64,0,0,0,1,.28c5.26-.37,14.35-29,3.45-49.66C1417,243.38,1399.4,238.47,1396.2,237.58Z"/><path class="cls-1" d="M1578.1,123V102a75.75,75.75,0,0,0-75.75,75.76V239.2H1436.8c14.68,13.05,22,49.74,11.55,66.51h54v212.8h75.75V305.65a66.48,66.48,0,0,0,65.35-66.45H1578.1Z"/><path class="cls-1" d="M1839.61,315v84.43q0,26-13.3,40.47t-37,14.46q-15.63,0-27.18-6.36a40,40,0,0,1-17.35-18.79q-5.79-12.44-5.79-29.78V239.2h-76.33V401.12q0,36.44,16.2,64.19a114.06,114.06,0,0,0,44.81,43.37q28.62,15.62,65.64,15.61T1854.94,509a110.14,110.14,0,0,0,44.52-43.08q15.9-27.76,15.91-64.77V239.2A75.76,75.76,0,0,0,1839.61,315Z"/><path class="cls-1" d="M2165.31,275.67a97.48,97.48,0,0,0-35.27-30.1q-23.72-12.15-53.78-12.15-38.16,0-68.81,19.08t-48,52.05q-17.34,33-17.34,74.6,0,41.06,17.34,74t48,52q30.65,19.08,68.81,19.08,30.07,0,53.78-12.43a102.91,102.91,0,0,0,27.19-20.42v27.07h75.17V239.2H2226A68.79,68.79,0,0,0,2165.31,275.67Zm-23.7,157.55q-19.67,21.11-51.47,21.1-20.82,0-36.72-9.54a66.15,66.15,0,0,1-24.86-26.6q-9-17.06-9-39.61,0-22,9-39a66.15,66.15,0,0,1,24.86-26.6q15.9-9.56,36.72-9.55,21.39,0,37.3,9.55a66.24,66.24,0,0,1,24.87,26.6q9,17.06,9,39Q2161.27,412.11,2141.61,433.22Z"/><path class="cls-1" d="M2525,239.2h-56.69a63.46,63.46,0,0,0-49.69,24l-82.72,104.07V100.42h0a75.75,75.75,0,0,0-75.75,75.75V518.51h75.75V382.22l102.36,136.29h92.52L2415.3,372Z"/><path class="cls-1" d="M2542.52,315.54v203h76.34V239.2A76.34,76.34,0,0,0,2542.52,315.54Z"/><path class="cls-1" d="M2580.69,107.36q-18.51,0-30.65,12.72a42.84,42.84,0,0,0-12.14,30.65q0,18.51,12.14,30.94t30.65,12.43q19.08,0,30.94-12.43t11.85-30.94a43.39,43.39,0,0,0-11.85-30.65Q2599.76,107.38,2580.69,107.36Z"/><path class="cls-1" d="M2857.74,100.42h0V263.33a103.3,103.3,0,0,0-25.15-17.76q-24-12.15-54.07-12.15-39.33,0-69.68,19.08t-48,52.05q-17.64,33-17.63,74.6,0,41.06,17.63,74t48.29,52q30.64,19.08,69.39,19.08,30.06,0,54.36-12.72a104.79,104.79,0,0,0,25.44-18.49v25.43h75.18V176.17A75.76,75.76,0,0,0,2857.74,100.42Zm-29.2,344.36q-15.9,9.54-37.3,9.54a70.4,70.4,0,0,1-36.43-9.54,65.56,65.56,0,0,1-25.15-26.6q-9-17.06-9-39.61,0-22,9-38.75a68.89,68.89,0,0,1,24.86-26.6q15.9-9.83,37.3-9.83,20.82,0,36.72,9.55a66.31,66.31,0,0,1,24.87,26.6q9,17.06,9,39,0,22.55-9,39.61A66.31,66.31,0,0,1,2828.54,444.78Z"/><path class="cls-1" d="M3161.62,394.18a80.07,80.07,0,0,0-26-26,146.47,146.47,0,0,0-33.54-15.32q-17.64-5.49-33.83-9.84t-26.31-10.12q-10.12-5.76-10.12-16.19,0-9.24,9-14.45T3066.5,297a85.17,85.17,0,0,1,34.4,6.94q15.9,6.94,28.63,22.55l12.77-12.77a42.56,42.56,0,0,0-13.08-69.1l-.56-.24q-28-12.14-62.74-12.14-33,0-57.25,11t-37.3,30.65q-13,19.67-13,46.26,0,25.45,10.12,41.35a72.12,72.12,0,0,0,26.31,24.86,179.25,179.25,0,0,0,33.83,14.46q17.64,5.51,33.83,9.83t26.31,10.7q10.11,6.38,10.12,17.93,0,10.41-9.54,15.61t-28.05,5.21q-23.13,0-42.21-8.1a93.44,93.44,0,0,1-33.54-24.29l-19.08,19.33a34.44,34.44,0,0,0,6.94,53.82,173,173,0,0,0,41.85,17.62,176.59,176.59,0,0,0,51.09,6.33q47.72-1,75.91-24,29.49-24,29.49-65.05Q3171.74,410.38,3161.62,394.18Z"/></g></g></svg>