<svg xmlns="http://www.w3.org/2000/svg" viewBox="0 0 390.99 716.88"><defs><style>.cls-1{fill:#07d77d;}</style></defs><g id="Layer_2" data-name="Layer 2"><g id="Layer_1-2" data-name="Layer 1"><path class="cls-1" d="M391,237.14h-.5a133.14,133.14,0,0,1-94.72-39.25L178,80.15l69.41-69.43a36.77,36.77,0,0,1,51.9,0L391,102.39Zm-211.55-157,117,117a132.14,132.14,0,0,0,93.51,39V102.8L298.63,11.43a35.76,35.76,0,0,0-50.49,0Z"/><path class="cls-1" d="M227.57,716.88a37.46,37.46,0,0,1-26.56-11l-68.8-68.8L296.59,472.71a131.93,131.93,0,0,1,93.9-38.89h.5V569L254.13,705.9A37.44,37.44,0,0,1,227.57,716.88ZM133.63,637.1l68.09,68.09a36.62,36.62,0,0,0,51.71,0L390,568.62V434.82a130.92,130.92,0,0,0-92.7,38.6Z"/><path class="cls-1" d="M87.78,595.42,14.34,522a49.08,49.08,0,0,1,0-69.34L131.72,335.25,14.34,217.87a49.08,49.08,0,0,1,0-69.34L87.78,75.08,348,335.25Zm0-518.92L15,149.23a48.1,48.1,0,0,0,0,67.93l118.1,118.09L15,453.34a48.1,48.1,0,0,0,0,67.93L87.78,594,346.54,335.25Z"/></g></g></svg>