<svg xmlns="http://www.w3.org/2000/svg" viewBox="0 0 3238 2514"><defs><style>.cls-1,.cls-4,.cls-9{fill:#fff;}.cls-2{fill:#132d46;}.cls-3{fill:#ccc;}.cls-4{font-size:72.3px;}.cls-4,.cls-9{font-family:Montserrat-Bold, Montserrat;font-weight:700;}.cls-5{letter-spacing:-0.01em;}.cls-6{letter-spacing:0em;}.cls-7{letter-spacing:-0.01em;}.cls-8{letter-spacing:0em;}.cls-9{font-size:197.11px;}.cls-10{letter-spacing:0em;}.cls-11{letter-spacing:-0.01em;}.cls-12{letter-spacing:-0.02em;}.cls-13{letter-spacing:-0.01em;}.cls-14{letter-spacing:-0.01em;}.cls-15{letter-spacing:-0.03em;}.cls-16{letter-spacing:0em;}.cls-17{letter-spacing:-0.02em;}.cls-18{letter-spacing:-0.01em;}.cls-19{letter-spacing:0em;}.cls-20{letter-spacing:0.02em;}.cls-21{letter-spacing:0em;}</style></defs><g id="Layer_2" data-name="Layer 2"><g id="Layer_1-2" data-name="Layer 1"><rect class="cls-1" width="3238" height="2514"/><rect class="cls-2" x="339.88" y="318" width="2566.24" height="549"/><rect class="cls-3" x="340.22" y="983" width="2566.24" height="549"/><rect class="cls-2" x="340.56" y="1648" width="2566.24" height="549"/><text class="cls-4" transform="translate(486.29 627.12)"><tspan class="cls-5">F</tspan><tspan class="cls-6" x="45.19" y="0">ont </tspan><tspan class="cls-7" x="194.41" y="0">f</tspan><tspan x="221.67" y="0">amil</tspan><tspan class="cls-8" x="385.64" y="0">y</tspan><tspan x="429.17" y="0">: </tspan></text><text class="cls-9" transform="translate(1064.34 653.67)">Montse<tspan class="cls-10" x="768.32" y="0">r</tspan><tspan class="cls-11" x="852.48" y="0">r</tspan><tspan x="936.06" y="0">at Bold</tspan></text><text class="cls-4" transform="translate(486.29 1244.12)"><tspan class="cls-12">C</tspan><tspan x="51.62" y="0">olor (Neut</tspan><tspan class="cls-13" x="430.69" y="0">r</tspan><tspan x="461.34" y="0">al): </tspan></text><text class="cls-9" transform="translate(1064.34 1270.67)"><tspan xml:space="preserve"> H</tspan><tspan class="cls-14" x="215.04" y="0">e</tspan><tspan class="cls-15" x="336.46" y="0">x</tspan><tspan class="cls-16" x="448.61" y="0">-#</tspan><tspan class="cls-17" x="666.61" y="0">CCCCC</tspan><tspan x="1374.21" y="0">C</tspan></text><text class="cls-4" transform="translate(486.29 1978.12)"><tspan class="cls-12">C</tspan><tspan x="51.62" y="0">olor (</tspan><tspan class="cls-18" x="245.53" y="0">P</tspan><tspan class="cls-19" x="297.73" y="0">r</tspan><tspan x="328.6" y="0">ima</tspan><tspan class="cls-20" x="470.81" y="0">r</tspan><tspan x="503.06" y="0">y): </tspan></text><text class="cls-9" transform="translate(1064.34 2004.67)"><tspan xml:space="preserve"> H</tspan><tspan class="cls-14" x="215.04" y="0">e</tspan><tspan class="cls-15" x="336.46" y="0">x</tspan><tspan class="cls-16" x="448.61" y="0">-#1</tspan><tspan class="cls-21" x="743.88" y="0">3</tspan><tspan x="859.58" y="0">2D46</tspan></text></g></g></svg>