<svg xmlns="http://www.w3.org/2000/svg" viewBox="0 0 3238 2514"><defs><style>.cls-1,.cls-10,.cls-5{fill:#fff;}.cls-2{fill:#00aced;}.cls-3{fill:#ec2a7b;}.cls-4{fill:#07d77d;}.cls-5{font-size:72.3px;}.cls-10,.cls-5{font-family:Montserrat-Bold, Montserrat;font-weight:700;}.cls-6{letter-spacing:-0.02em;}.cls-7{letter-spacing:-0.01em;}.cls-8{letter-spacing:-0.05em;}.cls-9{letter-spacing:0.01em;}.cls-10{font-size:197.11px;}.cls-11{letter-spacing:-0.01em;}.cls-12{letter-spacing:-0.03em;}.cls-13{letter-spacing:0em;}.cls-14{letter-spacing:0em;}.cls-15{letter-spacing:0em;}.cls-16{letter-spacing:0.01em;}.cls-17{letter-spacing:-0.05em;}.cls-18{letter-spacing:0em;}.cls-19{letter-spacing:0.01em;}.cls-20{letter-spacing:-0.01em;}.cls-21{letter-spacing:-0.01em;}</style></defs><g id="Layer_2" data-name="Layer 2"><g id="Layer_1-2" data-name="Layer 1"><rect class="cls-1" width="3238" height="2514"/><rect class="cls-2" x="335.88" y="305" width="2566.24" height="549"/><rect class="cls-3" x="336.22" y="970" width="2566.24" height="549"/><rect class="cls-4" x="336.56" y="1635" width="2566.24" height="549"/><text class="cls-5" transform="translate(580.29 1258.12)"><tspan class="cls-6">C</tspan><tspan x="51.62" y="0">olor </tspan><tspan class="cls-7" x="219.72" y="0">(</tspan><tspan class="cls-8" x="245.02" y="0">T</tspan><tspan x="285.73" y="0">e</tspan><tspan class="cls-9" x="331.35" y="0">r</tspan><tspan x="363.59" y="0">tia</tspan><tspan class="cls-9" x="461.41" y="0">r</tspan><tspan x="493.66" y="0">y): </tspan></text><text class="cls-10" transform="translate(1158.34 1284.67)"><tspan xml:space="preserve"> H</tspan><tspan class="cls-11" x="215.04" y="0">e</tspan><tspan class="cls-12" x="336.46" y="0">x</tspan><tspan class="cls-13" x="448.61" y="0">-#</tspan><tspan class="cls-14" x="666.61" y="0">E</tspan><tspan class="cls-15" x="798.47" y="0">C</tspan><tspan class="cls-16" x="942.16" y="0">2</tspan><tspan class="cls-17" x="1059.64" y="0">A</tspan><tspan class="cls-13" x="1200.77" y="0">7B</tspan></text><text class="cls-5" transform="translate(580.29 1952.12)"><tspan class="cls-6">C</tspan><tspan x="51.62" y="0">olor (Se</tspan><tspan class="cls-7" x="337.27" y="0">c</tspan><tspan class="cls-18" x="379.5" y="0">o</tspan><tspan class="cls-19" x="426.85" y="0">n</tspan><tspan x="477.25" y="0">d): </tspan></text><text class="cls-10" transform="translate(1158.34 1978.67)"><tspan xml:space="preserve"> H</tspan><tspan class="cls-11" x="215.04" y="0">e</tspan><tspan class="cls-12" x="336.46" y="0">x</tspan><tspan class="cls-13" x="448.61" y="0">-#</tspan><tspan class="cls-15" x="666.61" y="0">0</tspan><tspan x="799.65" y="0">7D77D</tspan></text><text class="cls-5" transform="translate(580.29 601.12)"><tspan class="cls-6">C</tspan><tspan x="51.62" y="0">olor </tspan><tspan class="cls-7" x="219.72" y="0">(</tspan><tspan class="cls-8" x="245.02" y="0">T</tspan><tspan x="285.73" y="0">e</tspan><tspan class="cls-9" x="331.35" y="0">r</tspan><tspan x="363.59" y="0">tia</tspan><tspan class="cls-9" x="461.41" y="0">r</tspan><tspan x="493.66" y="0">y): </tspan></text><text class="cls-10" transform="translate(1158.34 627.67)"><tspan xml:space="preserve"> H</tspan><tspan class="cls-11" x="215.04" y="0">e</tspan><tspan class="cls-12" x="336.46" y="0">x</tspan><tspan class="cls-13" x="448.61" y="0">-#0</tspan><tspan class="cls-20" x="800.44" y="0">0</tspan><tspan class="cls-21" x="932.11" y="0">A</tspan><tspan x="1081.12" y="0">CED</tspan></text></g></g></svg>