<svg xmlns="http://www.w3.org/2000/svg" viewBox="0 0 627.77 627.77"><defs><style>.cls-1{fill:#ec2a7b;}.cls-2{fill:#07d77d;}.cls-3{fill:#00aced;}.cls-4{fill:#132d46;}</style></defs><g id="Layer_2" data-name="Layer 2"><g id="Layer_1-2" data-name="Layer 1"><path class="cls-1" d="M388.36,202.48,522.26,65.09,467.18,8.78a28.84,28.84,0,0,0-41.49.05L312.71,125l-73.5-75.14a28.53,28.53,0,0,0-41,0l-55.35,56.59,94.08,96.19A105.34,105.34,0,0,0,388.36,202.48Z"/><path class="cls-2" d="M203,618.87,312.71,506.68,378.94,575a31.78,31.78,0,0,0,45.74.09l52.94-54.13-89.95-92.37a104.37,104.37,0,0,0-150.09-.17L106.13,562.78,161,618.87A29.24,29.24,0,0,0,203,618.87Z"/><path class="cls-3" d="M554.18,526.79l59.55-60.89a39,39,0,0,0,0-54.25l-94.08-96.2,97.07-99.25a39.17,39.17,0,0,0,0-54.53l-59.41-60.75L347.5,315.45Z"/><path class="cls-4" d="M70,102.85,11.39,162.74a40.4,40.4,0,0,0,0,56.24l94.36,96.47L11.39,411.93a40.4,40.4,0,0,0,0,56.24L70,528.06,277.9,315.45Z"/></g></g></svg>