<svg xmlns="http://www.w3.org/2000/svg" viewBox="0 0 3161.18 604.85"><defs><style>.cls-1{fill:#fff;}</style></defs><g id="Layer_2" data-name="Layer 2"><g id="Layer_1-2" data-name="Layer 1"><path class="cls-1" d="M382.6,195.09,514.51,62.72,460.25,8.46a28.86,28.86,0,0,0-40.88,0l-111.3,111.9L235.66,48a28.57,28.57,0,0,0-40.41,0l-54.52,54.52,92.68,92.68A105.41,105.41,0,0,0,382.6,195.09Z"/><path class="cls-1" d="M200,596.28,308.07,488.19,373.32,554a31.79,31.79,0,0,0,45.06.09l52.15-52.15-88.61-89a104.44,104.44,0,0,0-147.86-.16L104.56,542.24l54,54A29.25,29.25,0,0,0,200,596.28Z"/><path class="cls-1" d="M546,507.56l58.66-58.66a37,37,0,0,0,0-52.28l-92.68-92.68,95.63-95.63a37.15,37.15,0,0,0,0-52.54L549,97.24l-206.7,206.7Z"/><path class="cls-1" d="M68.93,99.09,11.22,156.8a38.33,38.33,0,0,0,0,54.19l93,92.95-93,92.95a38.33,38.33,0,0,0,0,54.19l57.71,57.71L273.78,303.94Z"/><path class="cls-1" d="M1086.08,147.65,997.37,387.2,887.22,104.45H805l161.7,399.62h60.42l156.65-400h-34.47A67.67,67.67,0,0,0,1086.08,147.65Z"/><path class="cls-1" d="M1241.16,106.35q-17.91,0-29.64,12.3a41.4,41.4,0,0,0-11.75,29.65q0,17.91,11.75,29.93t29.64,12q18.46,0,29.93-12t11.47-29.93a42,42,0,0,0-11.47-29.65Q1259.62,106.36,1241.16,106.35Z"/><path class="cls-1" d="M1204.24,301.51V504.06h73.84V233.88h-6.22A67.63,67.63,0,0,0,1204.24,301.51Z"/><path class="cls-1" d="M1443.66,232.31c-25.25-7.05-55,6.82-60.89,24.79a18.24,18.24,0,0,0-.57,2.08v-25.3h-5.65a67.63,67.63,0,0,0-67.63,67.63V504.06h73.28V354.71q0-30.21,14.83-45t38.32-14.82c7.45,0,27.19,3.11,32.38,6.51a1.66,1.66,0,0,0,1,.27c5.09-.36,13.88-28.09,3.33-48C1463.76,237.92,1446.75,233.17,1443.66,232.31Z"/><path class="cls-1" d="M1619.62,121.45V101.13a73.28,73.28,0,0,0-73.28,73.28v59.47h-63.41c14.2,12.62,21.3,48.11,11.17,64.33h52.24V504.06h73.28V298.16a64.31,64.31,0,0,0,63.21-64.28h-63.21Z"/><path class="cls-1" d="M1872.58,307.16v81.67q0,25.17-12.86,39.16t-35.8,14q-15.11,0-26.29-6.15a38.74,38.74,0,0,1-16.78-18.18q-5.6-12-5.6-28.81V233.88h-73.83V390.51q0,35.24,15.66,62.09a110.23,110.23,0,0,0,43.35,41.95q27.69,15.1,63.49,15.11t63.49-14.83a106.5,106.5,0,0,0,43.07-41.67q15.38-26.85,15.38-62.65V233.88A73.28,73.28,0,0,0,1872.58,307.16Z"/><path class="cls-1" d="M2187.64,269.16A94.4,94.4,0,0,0,2153.53,240q-23-11.74-52-11.75-36.91,0-66.56,18.46a128.71,128.71,0,0,0-46.43,50.34q-16.79,31.89-16.78,72.16,0,39.74,16.78,71.6a128.67,128.67,0,0,0,46.43,50.35q29.64,18.45,66.56,18.46,29.09,0,52-12a99.72,99.72,0,0,0,26.29-19.75v26.18h72.71V233.88h-6.15A66.53,66.53,0,0,0,2187.64,269.16Zm-22.93,152.4q-19,20.42-49.78,20.41-20.14,0-35.52-9.23a63.89,63.89,0,0,1-24-25.73q-8.68-16.49-8.67-38.32,0-21.24,8.67-37.75a64,64,0,0,1,24-25.73q15.38-9.24,35.52-9.24,20.68,0,36.08,9.24a64.16,64.16,0,0,1,24,25.73q8.67,16.5,8.67,37.75Q2183.73,401.15,2164.71,421.56Z"/><path class="cls-1" d="M2535.54,233.88H2480.7a61.38,61.38,0,0,0-48.06,23.2l-80,100.66V99.64h0a73.27,73.27,0,0,0-73.28,73.27V504.06h73.28V372.23l99,131.83h89.5L2429.46,362.35Z"/><path class="cls-1" d="M2552.52,307.72V504.06h73.84V233.88A73.84,73.84,0,0,0,2552.52,307.72Z"/><path class="cls-1" d="M2589.45,106.35q-17.91,0-29.65,12.3a41.44,41.44,0,0,0-11.75,29.65q0,17.91,11.75,29.93t29.65,12q18.45,0,29.92-12t11.47-29.93a42,42,0,0,0-11.47-29.65Q2607.89,106.36,2589.45,106.35Z"/><path class="cls-1" d="M2857.44,99.64h0V257.22A99.91,99.91,0,0,0,2833.11,240q-23.22-11.74-52.3-11.75-38,0-67.4,18.46T2667,297.09q-17.07,31.89-17.06,72.16,0,39.74,17.06,71.6t46.71,50.35q29.64,18.45,67.12,18.46,29.08,0,52.58-12.31A102.15,102.15,0,0,0,2858,479.47v24.59h72.71V172.91A73.27,73.27,0,0,0,2857.44,99.64Zm-28.24,333.1q-15.39,9.24-36.08,9.23a68,68,0,0,1-35.24-9.23A63.37,63.37,0,0,1,2733.54,407q-8.67-16.49-8.67-38.32,0-21.24,8.67-37.48a66.65,66.65,0,0,1,24.06-25.73Q2773,296,2793.68,296q20.13,0,35.52,9.24a64.16,64.16,0,0,1,24.05,25.73q8.67,16.5,8.67,37.75,0,21.82-8.67,38.32A64.09,64.09,0,0,1,2829.2,432.74Z"/><path class="cls-1" d="M3151.4,383.8a77.44,77.44,0,0,0-25.18-25.17,142,142,0,0,0-32.44-14.83q-17.07-5.31-32.72-9.51t-25.46-9.79q-9.78-5.58-9.79-15.66,0-8.94,8.67-14t24.9-5a82.24,82.24,0,0,1,33.28,6.72q15.38,6.7,27.69,21.81L3132.71,306a41.16,41.16,0,0,0-12.66-66.84l-.54-.23q-27.14-11.74-60.69-11.75-31.89,0-55.38,10.63t-36.08,29.65q-12.59,19-12.58,44.75,0,24.62,9.78,40A69.68,69.68,0,0,0,2990,376.24a173.29,173.29,0,0,0,32.72,14q17.06,5.32,32.72,9.51t25.46,10.35q9.78,6.17,9.78,17.34,0,10.06-9.23,15.1t-27.13,5q-22.37,0-40.83-7.83a90.45,90.45,0,0,1-32.45-23.5l-18.45,18.7a33.31,33.31,0,0,0,6.71,52.06,167.23,167.23,0,0,0,40.48,17,170.75,170.75,0,0,0,49.42,6.13q46.16-1,73.44-23.17,28.53-23.21,28.52-62.93Q3161.18,399.47,3151.4,383.8Z"/></g></g></svg>