<svg xmlns="http://www.w3.org/2000/svg" viewBox="0 0 3174.83 625.29"><defs><style>.cls-1{fill:#07d77d;}</style></defs><g id="Layer_2" data-name="Layer 2"><g id="Layer_1-2" data-name="Layer 1"><path class="cls-1" d="M1120.33,103.93,957.57,519.56H894.8l-168-415.2h85.42L926.67,398.13l92.17-248.88a70.31,70.31,0,0,1,65.68-45.32Z"/><path class="cls-1" d="M1180,193.51q-18.62,0-30.81-12.5T1137,149.92a43.06,43.06,0,0,1,12.2-30.8q12.21-12.78,30.81-12.79,19.17,0,31.09,12.79a43.62,43.62,0,0,1,11.92,30.8q0,18.62-11.92,31.09T1180,193.51Zm-38.36,326V309.1a70.26,70.26,0,0,1,70.25-70.26h6.47V519.55Z"/><path class="cls-1" d="M1250.37,519.55V309.1a70.26,70.26,0,0,1,70.26-70.26h5.88V519.55Zm76.14-155.17-1.92-47.85c1-10.1,1.42-18.19,1.54-24.78.4-22.3-.74-23.65,1-28.79,6.16-18.67,37-33.08,63.27-25.76,3.21.9,20.88,5.83,29.5,22.13,11,20.72,1.82,49.54-3.47,49.91a1.78,1.78,0,0,1-1-.28c-5.39-3.54-25.89-6.77-33.64-6.77q-24.4,0-39.81,15.4T1326.51,364.38Z"/><path class="cls-1" d="M1442.77,305.68c10.52-16.85,3.14-53.73-11.61-66.84h207.69A66.85,66.85,0,0,1,1572,305.68ZM1497,519.55V177.05a76.14,76.14,0,0,1,76.13-76.14V519.55Z"/><path class="cls-1" d="M1785.44,525.37q-37.2,0-66-15.7a114.6,114.6,0,0,1-45-43.59q-16.28-27.9-16.28-64.51V238.84h76.72v161q0,17.43,5.81,29.93a40.26,40.26,0,0,0,17.44,18.89q11.61,6.41,27.31,6.39,23.82,0,37.2-14.53T1836,399.83V315a76.14,76.14,0,0,1,76.14-76.14h0V401.57q0,37.2-16,65.09A110.64,110.64,0,0,1,1851.4,510Q1822.65,525.35,1785.44,525.37Z"/><path class="cls-1" d="M2224.39,238.84a69.13,69.13,0,0,0-61,36.65,97.12,97.12,0,0,0-35.44-30.24Q2104,233,2073.85,233q-38.34,0-69.14,19.19a133.38,133.38,0,0,0-48.26,52.28q-17.42,33.15-17.42,75,0,41.22,17.42,74.39a133.38,133.38,0,0,0,48.26,52.28q30.75,19.17,69.14,19.19,30.18,0,54.06-12.49a102.58,102.58,0,0,0,27.29-20.51v27.2h75.55V238.84Zm-84.87,195q-19.72,21.21-51.72,21.21c-14,0-26.26-3.23-36.89-9.6a66.55,66.55,0,0,1-25-26.73q-9.06-17.13-9-39.83c0-14.7,3-27.81,9-39.23a66.55,66.55,0,0,1,25-26.73q15.95-9.62,36.89-9.6,21.48,0,37.49,9.6a67.17,67.17,0,0,1,25,26.73c6,11.42,9,24.53,9,39.23Q2159.27,412.61,2139.52,433.85Z"/><path class="cls-1" d="M2258.62,519.55V175.49a76.14,76.14,0,0,1,76.14-76.13h0V519.55Zm179,0L2329,374.84l88.94-111.9a63.78,63.78,0,0,1,49.94-24.1h57L2398.11,392.27l2.9-37.19,129.61,164.47Z"/><path class="cls-1" d="M2580.81,193.51q-18.61,0-30.8-12.5t-12.21-31.09a43,43,0,0,1,12.21-30.8q12.19-12.78,30.8-12.79,19.17,0,31.09,12.79a43.62,43.62,0,0,1,11.92,30.8q0,18.62-11.92,31.09T2580.81,193.51Zm-38.36,326v-204a76.72,76.72,0,0,1,76.72-76.72h0V519.55Z"/><path class="cls-1" d="M2913.1,121.63a76,76,0,0,0-53.83-22.28V263.09A103,103,0,0,0,2834,245.25Q2809.84,233,2779.65,233q-39.54,0-70,19.19t-48.26,52.28q-17.7,33.15-17.74,75,0,41.22,17.74,74.39t48.54,52.28q30.75,19.17,69.75,19.19,30.2,0,54.62-12.77A103.73,103.73,0,0,0,2859.83,494v25.56h75.55v-344A76,76,0,0,0,2913.1,121.63Zm-58.18,297.1a67.17,67.17,0,0,1-25,26.73c-10.67,6.37-23.17,9.6-37.49,9.6a70.82,70.82,0,0,1-36.61-9.6,65.94,65.94,0,0,1-25.28-26.73q-9.06-17.13-9-39.83,0-22,9-38.95a69.33,69.33,0,0,1,24.95-26.73c10.68-6.55,23.17-9.88,37.5-9.88q20.93,0,36.93,9.6a67.17,67.17,0,0,1,25,26.73c6,11.42,9,24.53,9,39.23Q2863.9,401.58,2854.92,418.73Z"/><path class="cls-1" d="M3068.9,525.9a177.3,177.3,0,0,1-51.35-6.37,174.37,174.37,0,0,1-42.06-17.7h0a34.62,34.62,0,0,1-7-54.1l19.17-19.42a94.07,94.07,0,0,0,33.72,24.41q19.17,8.14,42.42,8.13,18.59,0,28.19-5.23t9.59-15.69q0-11.61-10.17-18T3065,411.16q-16.27-4.37-34-9.88a181,181,0,0,1-34-14.53,72.52,72.52,0,0,1-26.44-25q-10.17-16-10.17-41.55,0-26.73,13.08-46.5t37.48-30.8q24.41-11,57.54-11,34.88,0,63.06,12.2l.56.25a42.77,42.77,0,0,1,13.15,69.44l-12.84,12.84q-12.79-15.69-28.77-22.66a85.52,85.52,0,0,0-34.58-7q-16.86,0-25.86,5.23t-9,14.53q0,10.47,10.17,16.27t26.45,10.17q16.26,4.36,34,9.88a147.37,147.37,0,0,1,33.71,15.41,80.6,80.6,0,0,1,26.16,26.15q10.15,16.27,10.16,41.84,0,41.28-29.63,65.39Q3116.87,524.89,3068.9,525.9Z"/><path class="cls-1" d="M395.52,201.68,531.89,64.83,475.8,8.74a29.85,29.85,0,0,0-42.27.06l-115,115.68L243.62,49.63a29.53,29.53,0,0,0-41.77,0L145.48,106l95.82,95.81A109,109,0,0,0,395.52,201.68Z"/><path class="cls-1" d="M206.73,616.43,318.48,504.68l67.45,68a32.88,32.88,0,0,0,46.58.09l53.92-53.91-91.61-92A108,108,0,0,0,242,426.69L108.09,560.56,164,616.43A30.24,30.24,0,0,0,206.73,616.43Z"/><path class="cls-1" d="M564.4,524.71l60.65-60.65a38.22,38.22,0,0,0,0-54l-95.82-95.81,98.86-98.86a38.41,38.41,0,0,0,0-54.32l-60.51-60.5L353.9,314.21Z"/><path class="cls-1" d="M71.26,102.44,11.6,162.1a39.6,39.6,0,0,0,0,56l96.09,96.1L11.6,410.3a39.61,39.61,0,0,0,0,56L71.26,526,283,314.21Z"/></g></g></svg>